<?xml version="1.0" encoding="utf-8"?>
<!-- Generator: Adobe Illustrator 22.1.0, SVG Export Plug-In . SVG Version: 6.00 Build 0)  -->
<svg version="1.1" id="Layer_1" xmlns="http://www.w3.org/2000/svg" xmlns:xlink="http://www.w3.org/1999/xlink" x="0px" y="0px"
	 viewBox="0 0 848.1 100.1" style="enable-background:new 0 0 848.1 100.1;" xml:space="preserve">
<style type="text/css">
	.st0{fill:#D36028;}
	.st1{fill:#909191;}
</style>
<title>Artboard 1</title>
<rect x="24.9" y="36.6" class="st0" width="15" height="60"/>
<polygon class="st0" points="5.9,29.6 5.9,43.5 22.9,43.5 22.9,36.6 22.9,34.6 24.9,34.6 39.9,34.6 41.9,34.6 41.9,36.6 41.9,43.5 
	58.9,43.5 58.9,29.6 "/>
<circle class="st1" cx="412.9" cy="48.1" r="5"/>
<circle class="st1" cx="438.9" cy="48.1" r="5"/>
<rect x="409.9" y="74.1" class="st1" width="32" height="10"/>
<path class="st1" d="M451.9,43.1v-15h-24.5V13.7c2.5-1.1,3.7-4.1,2.6-6.6s-4.1-3.7-6.6-2.6s-3.7,4.1-2.6,6.6
	c0.5,1.2,1.4,2.1,2.6,2.6v14.4h-24.5v15h-4v35h4v18h53v-18h4v-35H451.9z M412.9,41.1c3.9,0,7,3.1,7,7s-3.1,7-7,7s-7-3.1-7-7
	S409,41.1,412.9,41.1z M443.9,74.1v12h-36v-14h36V74.1z M438.9,55.1c-3.9,0-7-3.1-7-7s3.1-7,7-7s7,3.1,7,7S442.8,55.1,438.9,55.1z"
	/>
<rect x="74.9" y="58.6" class="st0" width="38" height="10"/>
<polygon class="st0" points="120.9,29.6 67.9,29.6 67.9,43.6 67.9,96.6 81.9,96.6 120.9,96.6 120.9,82.6 81.9,82.6 81.9,70.6 
	74.9,70.6 72.9,70.6 72.9,68.6 72.9,58.6 72.9,56.6 74.9,56.6 81.9,56.6 81.9,43.6 120.9,43.6 "/>
<rect x="197.9" y="58.6" class="st0" width="39" height="10"/>
<polygon class="st0" points="204.9,29.6 190.9,29.6 190.9,96.6 204.9,96.6 204.9,70.6 197.9,70.6 195.9,70.6 195.9,68.6 195.9,58.6 
	195.9,56.6 197.9,56.6 204.9,56.6 204.9,43.6 229.9,43.6 229.9,56.6 236.9,56.6 238.9,56.6 238.9,58.6 238.9,68.6 238.9,70.6 
	236.9,70.6 229.9,70.6 229.9,96.6 243.9,96.6 243.9,43.6 243.9,29.6 "/>
<rect x="261.9" y="58.6" class="st0" width="38" height="10"/>
<polygon class="st0" points="301.9,58.6 301.9,68.6 301.9,70.6 299.9,70.6 292.9,70.6 292.9,82.6 254.9,82.6 254.9,96.6 306.9,96.6 
	306.9,82.6 306.9,70.6 306.9,58.6 "/>
<polygon class="st0" points="268.9,29.6 254.9,29.6 254.9,43.6 254.9,68.6 259.9,68.6 259.9,58.6 259.9,56.6 261.9,56.6 268.9,56.6 
	268.9,43.6 306.9,43.6 306.9,29.6 "/>
<polygon class="st0" points="146.9,70.6 146.9,68.6 146.9,58.6 146.9,56.6 151.9,56.6 141.9,46.6 141.9,29.6 127.9,29.6 127.9,46.6 
	127.9,49.6 141.9,63.6 127.9,77.6 127.9,80.6 127.9,96.6 141.9,96.6 141.9,80.6 151.9,70.6 148.9,70.6 "/>
<polygon class="st0" points="165.9,29.6 165.9,46.6 153.9,58.6 148.9,58.6 148.9,68.6 153.9,68.6 165.9,80.6 165.9,96.6 180.9,96.6 
	180.9,80.6 180.9,77.6 166.4,63.1 180.9,48.6 180.9,46.6 180.9,46.1 180.9,29.6 "/>
<path class="st1" d="M763.9,56.2v33.4c0,4.1,3.4,7.5,7.5,7.5s7.5-3.4,7.5-7.5V34.7L763.9,56.2z"/>
<polygon class="st1" points="746.1,60.1 724.9,31.1 717.9,47.1 739.5,76.6 741,69.4 "/>
<path class="st0" d="M718.4,97.1L718.4,97.1c-4.1,0-7.5-3.4-7.5-7.5v-55c0-4.1,3.4-7.5,7.5-7.5l0,0c4.1,0,7.5,3.4,7.5,7.5v55
	C725.9,93.7,722.5,97.1,718.4,97.1z M721.9,34.1c0-1.9-1.6-3.5-3.5-3.5s-3.5,1.6-3.5,3.5s1.6,3.5,3.5,3.5S721.9,36,721.9,34.1z"/>
<path class="st0" d="M740.5,77.6L740.5,77.6c-3.3-2.5-3.9-7.2-1.4-10.5l26.4-36.6c2.5-3.3,7.2-3.9,10.5-1.4l0,0
	c3.3,2.5,3.9,7.2,1.4,10.5L751,76.2C748.5,79.4,743.8,80.1,740.5,77.6z M774.9,34.6c0-1.9-1.6-3.5-3.5-3.5s-3.5,1.6-3.5,3.5
	s1.6,3.5,3.5,3.5C773.3,38.1,774.9,36.5,774.9,34.6L774.9,34.6z M748.4,71.6c0-1.9-1.6-3.5-3.5-3.5s-3.5,1.6-3.5,3.5
	s1.6,3.5,3.5,3.5C746.8,75.1,748.4,73.5,748.4,71.6L748.4,71.6z"/>
<path class="st1" d="M584.9,67.1v-9l-5.8-1.7c-0.7-3.3-1.9-6.5-3.7-9.3l3.1-5.5l-6.4-6.4l-5.3,2.9c-2.8-1.9-5.9-3.2-9.2-4l-1.7-6.1
	h-9l-1.7,5.8c-3.3,0.7-6.5,1.9-9.3,3.7l-5.5-3.1l-6.4,6.4l3,5.3c-1.9,2.8-3.2,5.9-4,9.2l-6.1,1.7v9l5.8,1.7c0.7,3.3,1.9,6.5,3.7,9.3
	l-3.1,5.5l6.3,6.4l5.3-3c2.8,1.9,5.9,3.2,9.2,4l1.7,6.1h9l1.7-5.8c3.3-0.7,6.5-1.9,9.3-3.7l5.5,3.1l6.4-6.4l-3-5.3
	c1.9-2.8,3.2-5.9,4-9.2L584.9,67.1z M550.9,82.1c-11,0-20-9-20-20s9-20,20-20s20,9,20,20S561.9,82.1,550.9,82.1z"/>
<path class="st0" d="M351.9,28.1h-14v68h14v-27h-9v-14h9v-12h25v4l-10,10h-22v10h22l9,10v19h15v-19l-15-15l15-15v-19
	C390.9,28.1,351.9,28.1,351.9,28.1z M349.9,88.6c0,2.8-2.2,5-5,5c-1,0-1.9-0.3-2.8-0.8l6.9-6.9C349.6,86.7,349.9,87.6,349.9,88.6z
	 M344.9,83.6c1,0,1.9,0.3,2.8,0.8l-6.9,6.9c-1.5-2.3-0.9-5.4,1.4-6.9C343,83.9,343.9,83.6,344.9,83.6z M344.9,40.6c-2.8,0-5-2.2-5-5
	c0-1,0.3-1.9,0.8-2.7l6.9,6.9C346.8,40.3,345.9,40.6,344.9,40.6z M349.1,38.4l-6.9-6.9c2.3-1.5,5.4-0.9,6.9,1.4
	C350.2,34.5,350.2,36.7,349.1,38.4z M351.9,64.1h-4v-1h4V64.1z M351.9,61.1h-4v-1h4V61.1z M387.6,32.9c1.5,2.3,0.9,5.4-1.4,6.9
	c-1.7,1.1-3.8,1.1-5.5,0L387.6,32.9z M379.2,38.4c-1.5-2.3-0.9-5.4,1.4-6.9c1.7-1.1,3.8-1.1,5.5,0L379.2,38.4z M386.2,92.8
	c-2.3,1.5-5.4,0.9-6.9-1.5c-1.1-1.7-1.1-3.8,0-5.5L386.2,92.8z M380.6,84.4c2.3-1.5,5.4-0.9,6.9,1.4c1.1,1.7,1.1,3.9,0,5.5
	L380.6,84.4z"/>
<path class="st0" d="M602.9,43.1v38h38v15h-53v-68h53v15H602.9z M591.2,32.9c-1.5,2.3-0.9,5.4,1.5,6.9c1.7,1.1,3.8,1.1,5.5,0
	L591.2,32.9z M599.6,38.4c1.5-2.3,0.9-5.4-1.4-6.9c-1.7-1.1-3.9-1.1-5.5,0L599.6,38.4z M629.7,85.9c-1.5,2.3-0.9,5.4,1.5,6.9
	c1.7,1.1,3.8,1.1,5.5,0L629.7,85.9z M638.1,91.4c1.5-2.3,0.9-5.4-1.4-6.9c-1.7-1.1-3.9-1.1-5.5,0L638.1,91.4z M592.6,92.8
	c2.3,1.5,5.4,0.9,6.9-1.4c1.1-1.7,1.1-3.8,0-5.5L592.6,92.8z M598.2,84.4c-2.3-1.5-5.4-0.9-6.9,1.4c-1.1,1.7-1.1,3.8,0,5.5
	L598.2,84.4z M631.2,39.8c2.3,1.5,5.4,0.9,6.9-1.4c1.1-1.7,1.1-3.8,0-5.5L631.2,39.8z M636.7,31.4c-2.3-1.5-5.4-0.9-6.9,1.4
	c-1.1,1.7-1.1,3.8,0,5.5L636.7,31.4z"/>
<path class="st0" d="M693.9,67.1h-39v-10h39V67.1z M661.9,60.1h-4v1h4V60.1z M661.9,63.1h-4v1h4V63.1z M690.9,60.1h-4v1h4V60.1z
	 M690.9,63.1h-4v1h4V63.1z"/>
<path class="st0" d="M700.9,28.1v68h-14v-27h9v-14h-9v-13h-25v13h-9v14h9v27h-14v-68C647.9,28.1,700.9,28.1,700.9,28.1z M650.7,32.9
	c-1.5,2.3-0.9,5.4,1.5,6.9c1.7,1.1,3.8,1.1,5.5,0L650.7,32.9z M659.1,38.4c1.5-2.3,0.9-5.4-1.4-6.9c-1.7-1.1-3.9-1.1-5.5,0
	L659.1,38.4z M689.7,85.9c-1.5,2.3-0.9,5.4,1.5,6.9c1.7,1.1,3.8,1.1,5.5,0L689.7,85.9z M698.1,91.4c1.5-2.3,0.9-5.4-1.4-6.9
	c-1.7-1.1-3.9-1.1-5.5,0L698.1,91.4z M652.1,92.8c2.3,1.5,5.4,0.9,6.9-1.4c1.1-1.7,1.1-3.8,0-5.5L652.1,92.8z M657.7,84.4
	c-2.3-1.5-5.4-0.9-6.9,1.4c-1.1,1.7-1.1,3.8,0,5.5L657.7,84.4z M691.1,39.8c2.3,1.5,5.4,0.9,6.9-1.4c1.1-1.7,1.1-3.8,0-5.5
	L691.1,39.8z M696.7,31.4c-2.3-1.5-5.4-0.9-6.9,1.4c-1.1,1.7-1.1,3.8,0,5.5L696.7,31.4z"/>
<path class="st0" d="M803.9,28.1h-15v68h15v-27h-10v-14h10v-12h24v14h-32v10h46v-39C841.9,28.1,803.9,28.1,803.9,28.1z M801.4,88.6
	c0,2.8-2.2,5-5,5c-1,0-1.9-0.3-2.8-0.8l6.9-6.9C801.1,86.7,801.4,87.6,801.4,88.6z M796.4,83.6c1,0,1.9,0.3,2.8,0.8l-6.9,6.9
	c-1.5-2.3-0.9-5.4,1.4-6.9C794.5,83.9,795.4,83.6,796.4,83.6z M796.4,40.6c-2.8,0-5-2.2-5-5c0-1,0.3-1.9,0.8-2.7l6.9,6.9
	C798.3,40.3,797.4,40.6,796.4,40.6z M800.6,38.4l-6.9-6.9c2.3-1.5,5.4-0.9,6.9,1.4C801.7,34.5,801.7,36.7,800.6,38.4z M829.9,35.6
	c0-2.8,2.2-5,5-5c1,0,1.9,0.3,2.7,0.8l-6.9,6.9C830.2,37.6,829.9,36.6,829.9,35.6z M834.9,40.6c-1,0-1.9-0.3-2.8-0.8l6.9-6.9
	c1.5,2.3,0.9,5.4-1.4,6.9C836.8,40.3,835.9,40.6,834.9,40.6z"/>
<path class="st0" d="M500.9,57.1v-29h-39v15h-1v4h1v1h-1v4h1v1h-1v4h1v10h-1v4h1v1h-1v4h1v1h-1v4h1v15h53v-39H500.9z M461.9,44.1h15
	v2h-15V44.1z M461.9,49.1h15v2h-15V49.1z M476.9,52.1h1v-4h-1v-1h1v-4h-1v-1h9v15h-8v-4h-1V52.1z M461.9,54.1h15v2h-15V54.1z
	 M461.9,68.1h15v2h-15V68.1z M461.9,73.1h15v2h-15V73.1z M461.9,78.1h15v2h-15V78.1z M500.9,81.1h-23v-4h-1v-1h1v-4h-1v-1h1v-4h23
	V81.1z"/>
</svg>
